#tb 0: 1/25
#media_type 0: video
#codec_id 0: rawvideo
#dimensions 0: 352x256
#sar 0: 1/1
0,          0,          0,        1,   270336, 0x24a46c67
0,          1,          1,        1,   270336, 0x622077e7
0,          2,          2,        1,   270336, 0xb96dd1a1
0,          3,          3,        1,   270336, 0x180b16d9
0,          4,          4,        1,   270336, 0x3db34c80
0,          5,          5,        1,   270336, 0x417444b0
0,          6,          6,        1,   270336, 0x3c017273
0,          7,          7,        1,   270336, 0x572e7728
0,          8,          8,        1,   270336, 0x18e17a61
0,          9,          9,        1,   270336, 0x8d9f54fa
0,         10,         10,        1,   270336, 0x01e5837b
0,         11,         11,        1,   270336, 0x72ae7f4d
0,         12,         12,        1,   270336, 0xb6ab9cbc
0,         13,         13,        1,   270336, 0x28c5c525
0,         14,         14,        1,   270336, 0x6d89daab
0,         15,         15,        1,   270336, 0x761ff261
0,         16,         16,        1,   270336, 0xae200837
0,         17,         17,        1,   270336, 0x09fe102f
0,         18,         18,        1,   270336, 0x4999133b
0,         19,         19,        1,   270336, 0xbc2d12b9
0,         20,         20,        1,   270336, 0x35f8021a
0,         21,         21,        1,   270336, 0x5a8605b2
0,         22,         22,        1,   270336, 0xb25703c8
0,         23,         23,        1,   270336, 0x641909ae
0,         24,         24,        1,   270336, 0x8a6e1160
0,         25,         25,        1,   270336, 0xce181598
0,         26,         26,        1,   270336, 0xc0ea1336
0,         27,         27,        1,   270336, 0x941d0ffd
0,         28,         28,        1,   270336, 0xf94a0fe9
0,         29,         29,        1,   270336, 0x591d0fcb
0,         30,         30,        1,   270336, 0x84fb1be7
0,         31,         31,        1,   270336, 0xda8016f6
0,         32,         32,        1,   270336, 0x8736150c
0,         33,         33,        1,   270336, 0xf5931a7a
0,         34,         34,        1,   270336, 0x582b14d5
0,         35,         35,        1,   270336, 0x85ce0a53
0,         36,         36,        1,   270336, 0xf1c106fc
0,         37,         37,        1,   270336, 0xd023ff6d
0,         38,         38,        1,   270336, 0xe398f0c2
0,         39,         39,        1,   270336, 0x5c910959
0,         40,         40,        1,   270336, 0xfbec13a9
0,         41,         41,        1,   270336, 0x3f1e16f1
0,         42,         42,        1,   270336, 0x6c1a1e08
0,         43,         43,        1,   270336, 0x15091ba6
0,         44,         44,        1,   270336, 0x82721c7d
0,         45,         45,        1,   270336, 0x69a91697
0,         46,         46,        1,   270336, 0xdcbb1b6a
0,         47,         47,        1,   270336, 0x7cfa19ad
0,         48,         48,        1,   270336, 0x65ba1ad4
0,         49,         49,        1,   270336, 0xca65231c
